<?xml version="1.0" encoding="UTF-8" standalone="no"?>
<svg
   width="186.97287"
   zoomAndPan="magnify"
   viewBox="0 0 140.22965 104.18845"
   height="138.91794"
   preserveAspectRatio="xMidYMid"
   version="1.0"
   id="svg212"
   sodipodi:docname="2.svg"
   inkscape:version="1.2.1 (9c6d41e, 2022-07-14)"
   xmlns:inkscape="http://www.inkscape.org/namespaces/inkscape"
   xmlns:sodipodi="http://sodipodi.sourceforge.net/DTD/sodipodi-0.dtd"
   xmlns="http://www.w3.org/2000/svg"
   xmlns:svg="http://www.w3.org/2000/svg">
  <sodipodi:namedview
     id="namedview214"
     pagecolor="#ffffff"
     bordercolor="#000000"
     borderopacity="0.25"
     inkscape:showpageshadow="2"
     inkscape:pageopacity="0.0"
     inkscape:pagecheckerboard="0"
     inkscape:deskcolor="#d1d1d1"
     showgrid="false"
     inkscape:zoom="0.472"
     inkscape:cx="79.449153"
     inkscape:cy="75.211864"
     inkscape:window-width="1440"
     inkscape:window-height="783"
     inkscape:window-x="0"
     inkscape:window-y="25"
     inkscape:window-maximized="1"
     inkscape:current-layer="svg212" />
  <defs
     id="defs134">
    <g
       id="g132" />
  </defs>
  <g
     fill="#ffffff"
     fill-opacity="1"
     id="g146"
     transform="translate(-128.24855,-131.31154)">
    <g
       transform="translate(128.24855,235.49998)"
       id="g144">
      <g
         id="g142">
        <path
           d="M 14.921875,-44.171875 H 0 v -32.96875 c 0,-0.582031 0.359375,-0.875 1.078125,-0.875 H 13.84375 c 0.71875,0 1.078125,0.292969 1.078125,0.875 z M 58.3125,-78.015625 c 0.71875,0 1.078125,0.292969 1.078125,0.875 V -0.875 C 59.390625,-0.289062 59.03125,0 58.3125,0 H 45.546875 C 44.828125,0 44.46875,-0.289062 44.46875,-0.875 v -13.75 H 14.921875 v 13.75 C 14.921875,-0.289062 14.5625,0 13.84375,0 H 1.078125 C 0.359375,0 0,-0.289062 0,-0.875 V -29.25 h 14.921875 v 0.09375 H 44.46875 v -47.984375 c 0,-0.582031 0.359375,-0.875 1.078125,-0.875 z m 0,0"
           id="path140" />
      </g>
    </g>
  </g>
  <g
     fill="#ffffff"
     fill-opacity="1"
     id="g154"
     transform="translate(-128.24855,-131.31154)">
    <g
       transform="translate(190.65603,235.49998)"
       id="g152">
      <g
         id="g150">
        <path
           d="m 53.25,-1.265625 c 0.125,0.324219 0.101562,0.617187 -0.0625,0.875 C 53.03125,-0.128906 52.753906,0 52.359375,0 h -13.9375 c -0.523437,0 -0.84375,-0.191406 -0.96875,-0.578125 L 23.203125,-31.5 h -8.375 V -0.875 C 14.828125,-0.289062 14.46875,0 13.75,0 H 0.96875 C 0.320312,0 0,-0.289062 0,-0.875 v -44.953125 h 26.234375 c 0.78125,0 1.816406,-0.0625 3.109375,-0.1875 1.300781,-0.132813 2.585938,-0.492187 3.859375,-1.078125 1.269531,-0.59375 2.34375,-1.488281 3.21875,-2.6875 0.875,-1.195312 1.3125,-2.867188 1.3125,-5.015625 0,-2.144531 -0.476563,-3.835937 -1.421875,-5.078125 -0.9375,-1.238281 -2.089844,-2.132812 -3.453125,-2.6875 -1.367187,-0.550781 -2.667969,-0.90625 -3.90625,-1.0625 -1.230469,-0.164062 -2.136719,-0.25 -2.71875,-0.25 H 0 v -13.265625 c 0,-0.582031 0.320312,-0.875 0.96875,-0.875 h 25.265625 c 0.90625,0 2.363281,0.08594 4.375,0.25 2.019531,0.15625 4.28125,0.59375 6.78125,1.3125 2.507813,0.71875 4.914063,1.890625 7.21875,3.515625 2.3125,1.625 4.210937,3.902344 5.703125,6.828125 1.5,2.917969 2.25,6.6875 2.25,11.3125 0,3.960937 -0.652344,7.324219 -1.953125,10.09375 -1.304687,2.761719 -3.042969,5.023437 -5.21875,6.78125 -2.179687,1.75 -4.570313,3.109375 -7.171875,4.078125 2.476562,5.53125 5,10.996094 7.5625,16.390625 2.570312,5.398437 5.0625,10.792969 7.46875,16.1875 z m 0,0"
           id="path148" />
      </g>
    </g>
  </g>
  <g
     fill="#ffffff"
     fill-opacity="1"
     id="g162"
     transform="translate(-128.24855,-131.31154)">
    <g
       transform="translate(209.77497,146.83175)"
       id="g160">
      <g
         id="g158">
        <path
           d="m 8.765625,-1.78125 c 0.144531,0.011719 0.210937,0.078125 0.203125,0.203125 L 8.625,0.953125 C 8.613281,1.066406 8.535156,1.117188 8.390625,1.109375 L 0.21875,0.03125 C 0.0703125,0.0078125 0.00390625,-0.0546875 0.015625,-0.171875 L 0.375,-2.890625 3.34375,-2.5 Z M 3.734375,-5.484375 0.765625,-5.875 l 1.25,-9.515625 c 0.019531,-0.101563 0.101563,-0.144531 0.25,-0.125 L 4.8125,-15.1875 c 0.132812,0.02344 0.191406,0.08594 0.171875,0.1875 z m 0,0"
           id="path156" />
      </g>
    </g>
  </g>
  <g
     fill="#ffffff"
     fill-opacity="1"
     id="g170"
     transform="translate(-128.24855,-131.31154)">
    <g
       transform="translate(219.64239,148.18335)"
       id="g168">
      <g
         id="g166">
        <path
           d="M 8.015625,-0.078125 6.96875,2.65625 0.203125,0.078125 C 0.0664062,0.0234375 0.0195312,-0.0507812 0.0625,-0.15625 L 5.53125,-14.5 c 0.039062,-0.101562 0.128906,-0.128906 0.265625,-0.07813 L 12.5625,-12 11.546875,-9.34375 7.375,-10.9375 6.109375,-7.625 l 5.75,2.203125 c 0.144531,0.054687 0.195313,0.132813 0.15625,0.234375 L 11.125,-2.84375 c -0.04297,0.105469 -0.136719,0.132812 -0.28125,0.078125 l -5.75,-2.203125 -1.25,3.296875 z m 0,0"
           id="path164" />
      </g>
    </g>
  </g>
  <g
     fill="#ffffff"
     fill-opacity="1"
     id="g178"
     transform="translate(-128.24855,-131.31154)">
    <g
       transform="translate(229.405,151.79704)"
       id="g176">
      <g
         id="g174">
        <path
           d="m 17.234375,-3.28125 -2.4375,-1.765625 C 14.492188,-5.285156 14.125,-5.539062 13.6875,-5.8125 13.25,-6.082031 12.765625,-6.3125 12.234375,-6.5 11.710938,-6.6875 11.160156,-6.769531 10.578125,-6.75 9.992188,-6.738281 9.40625,-6.5625 8.8125,-6.21875 c -0.59375,0.335938 -1.179688,0.890625 -1.75,1.671875 -0.730469,1 -1.109375,1.960937 -1.140625,2.875 -0.03125,0.90625 0.222656,1.75 0.765625,2.53125 0.539062,0.78125 1.285156,1.488281 2.234375,2.125 L 10.96875,0.1875 11.234375,-0.171875 8.796875,-1.96875 10.5625,-4.390625 13,-2.59375 15.4375,-0.828125 13.671875,1.59375 13.40625,1.953125 9.765625,6.921875 C 9.703125,7.015625 9.609375,7.019531 9.484375,6.9375 L 7.4375,5.421875 C 6.8125,4.972656 6.1875,4.457031 5.5625,3.875 4.945312,3.289062 4.398438,2.640625 3.921875,1.921875 3.453125,1.203125 3.125,0.421875 2.9375,-0.421875 c -0.179688,-0.84375 -0.148438,-1.757813 0.09375,-2.75 0.25,-0.988281 0.78125,-2.039063 1.59375,-3.15625 0.789062,-1.09375 1.613281,-1.894531 2.46875,-2.40625 0.851562,-0.519531 1.710938,-0.828125 2.578125,-0.921875 0.863281,-0.09375 1.710937,-0.03125 2.546875,0.1875 0.832031,0.210938 1.625,0.515625 2.375,0.921875 0.75,0.40625 1.445312,0.839844 2.09375,1.296875 l 2.046875,1.515625 c 0.125,0.085937 0.15625,0.171875 0.09375,0.265625 z m 0,0"
           id="path172" />
      </g>
    </g>
  </g>
  <g
     fill="#ffffff"
     fill-opacity="1"
     id="g186"
     transform="translate(-128.24855,-131.31154)">
    <g
       transform="translate(239.7907,159.4057)"
       id="g184">
      <g
         id="g182">
        <path
           d="M 7.578125,9.703125 C 7.554688,9.753906 7.507812,9.78125 7.4375,9.78125 7.375,9.78125 7.328125,9.753906 7.296875,9.703125 l -1.625,-2.15625 C 5.609375,7.472656 5.601562,7.394531 5.65625,7.3125 l 5.125,-7.71875 -8.828125,2.796875 C 1.878906,2.429688 1.8125,2.410156 1.75,2.328125 L 0.125,0.171875 C 0.0703125,0.0976562 0.0546875,0.0351562 0.078125,-0.015625 c 0.0195312,-0.0625 0.0625,-0.097656 0.125,-0.109375 l 15.8125,-4.453125 C 16.109375,-4.609375 16.1875,-4.582031 16.25,-4.5 c 0.0625,0.085938 0.06641,0.164062 0.01563,0.234375 z m 0,0"
           id="path180" />
      </g>
    </g>
  </g>
  <g
     fill="#ffffff"
     fill-opacity="1"
     id="g194"
     transform="translate(-128.24855,-131.31154)">
    <g
       transform="translate(247.62944,170.37335)"
       id="g192">
      <g
         id="g190">
        <path
           d="M 5.875,6.765625 C 5.925781,6.898438 5.890625,6.992188 5.765625,7.046875 L 3.390625,8 C 3.285156,8.039062 3.207031,7.992188 3.15625,7.859375 L 0.078125,0.203125 C 0.0234375,0.0664062 0.0507812,-0.0195312 0.15625,-0.0625 L 2.71875,-1.09375 3.828125,1.6875 Z M 6.609375,0.578125 5.5,-2.203125 14.40625,-5.78125 c 0.101562,-0.039062 0.179688,0.00781 0.234375,0.140625 L 15.609375,-3.25 c 0.03906,0.125 0.0078,0.210938 -0.09375,0.25 z m 0,0"
           id="path188" />
      </g>
    </g>
  </g>
  <g
     fill="#ffffff"
     fill-opacity="1"
     id="g202"
     transform="translate(-128.24855,-131.31154)">
    <g
       transform="translate(251.4618,179.26287)"
       id="g200">
      <g
         id="g198">
        <path
           d="m 17.015625,11.1875 c 0.0078,0.144531 -0.04297,0.222656 -0.15625,0.234375 l -15.25,1.6875 c -0.117187,0.0078 -0.179687,-0.05859 -0.1875,-0.203125 l -0.28125,-2.578125 c 0,-0.01172 0.00391,-0.04297 0.015625,-0.09375 0.00781,-0.04297 0.015625,-0.07031 0.015625,-0.07813 L 10.65625,1.84375 4.078125,2.578125 3.75,-0.40625 15.421875,-1.703125 c 0.113281,-0.00781 0.175781,0.054687 0.1875,0.1875 L 15.90625,1.0625 c 0,0.03125 0,0.066406 0,0.109375 0,0.039063 -0.01563,0.070313 -0.04687,0.09375 l -9.484375,8.3125 10.15625,-1.125 c 0.113281,-0.011719 0.179688,0.0625 0.203125,0.21875 z m 0,0"
           id="path196" />
      </g>
    </g>
  </g>
  <g
     fill="#ffffff"
     fill-opacity="1"
     id="g210"
     transform="translate(-128.24855,-131.31154)">
    <g
       transform="translate(252.91782,193.22732)"
       id="g208">
      <g
         id="g206">
        <path
           d="M 10.671875,11.265625 9.9375,14.828125 5.484375,10.0625 -1.578125,8.625 c -0.113281,-0.023438 -0.15625,-0.105469 -0.125,-0.25 L -1.1875,5.859375 C -1.15625,5.722656 -1.082031,5.664062 -0.96875,5.6875 l 7.0625,1.4375 c 1.488281,-0.65625 2.984375,-1.324219 4.484375,-2 1.5,-0.679688 2.992187,-1.351562 4.484375,-2.015625 0.08203,-0.054687 0.148438,-0.054687 0.203125,0 0.0625,0.0625 0.08203,0.144531 0.0625,0.25 L 14.71875,6.390625 C 14.69531,6.484375 14.66016,6.539062 14.609375,6.5625 L 8.75,9.171875 Z m 0,0"
           id="path204" />
      </g>
    </g>
  </g>
</svg>
