<?xml version="1.0" encoding="UTF-8" standalone="no"?>
<svg
   width="230"
   zoomAndPan="magnify"
   viewBox="0 0 172.5 165"
   height="220"
   preserveAspectRatio="xMidYMid"
   version="1.0"
   id="svg2"
   xmlns="http://www.w3.org/2000/svg"
   xmlns:svg="http://www.w3.org/2000/svg">
  <defs
     id="defs1">
    <clipPath
       id="30f2ec428e">
      <path
         d="m 335.14453,335.14453 h 139.5 v 139.5 h -139.5 z m 0,0"
         clip-rule="nonzero"
         id="path1" />
    </clipPath>
  </defs>
  <g
     clip-path="url(#30f2ec428e)"
     id="g2"
     transform="translate(-315,-322.5)">
    <path
       fill="#2b2b2b"
       d="m 473.03125,350.19531 h -10.16406 c -0.004,-0.82422 -0.31641,-1.64453 -0.94532,-2.27344 -0.60546,-0.60546 -1.39453,-0.91406 -2.1914,-0.9375 v -10.08593 c 0,-0.65235 -0.39063,-1.24219 -0.99219,-1.49219 -0.59766,-0.25 -1.29687,-0.11719 -1.75781,0.34375 l -10.96485,10.85156 c -0.30859,0.30469 -0.48437,0.71875 -0.48046,1.15235 l 0.0273,11.96484 -5.00781,5.00391 c -11.1875,-10.05079 -25.97266,-16.1836 -42.16407,-16.1836 -34.82421,0 -63.15625,28.33203 -63.15625,63.15625 0,34.82813 28.33204,63.16016 63.15625,63.16016 34.82422,0 63.15625,-28.33203 63.15625,-63.16016 0,-16.3125 -6.21484,-31.19922 -16.40234,-42.41797 l 5,-5.0039 11.95703,-0.0234 c 0.42188,-0.004 0.82813,-0.17188 1.13281,-0.46875 l 10.9336,-10.82031 c 0.46484,-0.46094 0.60547,-1.16016 0.35547,-1.76563 -0.2461,-0.60547 -0.83985,-1 -1.49219,-1 z m -22.79688,61.5 c 0,28.58985 -23.2539,51.84375 -51.84375,51.84375 -28.58593,0 -51.83984,-23.25781 -51.83984,-51.84375 0,-28.58594 23.25391,-51.83984 51.83984,-51.83984 13.07422,0 25.02344,4.87109 34.15235,12.88281 l -9.73438,9.73438 c -6.61718,-5.53907 -15.13281,-8.87891 -24.41797,-8.87891 -21.00781,0 -38.10156,17.09375 -38.10156,38.10156 0,21.01172 17.09375,38.10547 38.10156,38.10547 21.01172,0 38.10547,-17.09375 38.10547,-38.10547 0,-9.40234 -3.42968,-18.01562 -9.09765,-24.66797 l 9.73047,-9.73437 c 8.14453,9.16015 13.10546,21.21094 13.10546,34.40234 z m -51.84375,14.66797 c 8.08985,0 14.66797,-6.57812 14.66797,-14.66797 0,-2.93359 -0.875,-5.66406 -2.36328,-7.96094 l 9.81641,-9.82031 c 3.92578,4.875 6.28515,11.05469 6.28515,17.78125 0,15.66406 -12.74218,28.40625 -28.40625,28.40625 -15.66406,0 -28.40625,-12.74219 -28.40625,-28.40625 0,-15.66015 12.74219,-28.40625 28.40625,-28.40625 6.60938,0 12.6836,2.28906 17.51563,6.08985 l -9.83984,9.84375 c -2.23438,-1.38282 -4.85938,-2.19532 -7.67188,-2.19532 -8.08984,0 -14.66797,6.58203 -14.66797,14.66797 0,8.08985 6.57813,14.66797 14.66406,14.66797 z m 0,0"
       fill-opacity="1"
       fill-rule="nonzero"
       id="path2" />
  </g>
</svg>
