<?xml version="1.0" encoding="UTF-8" standalone="no"?>
<svg
   width="230"
   zoomAndPan="magnify"
   viewBox="0 0 172.5 172.5"
   height="230"
   preserveAspectRatio="xMidYMid"
   version="1.0"
   id="svg5"
   xmlns="http://www.w3.org/2000/svg"
   xmlns:svg="http://www.w3.org/2000/svg">
  <defs
     id="defs1">
    <clipPath
       id="7485859943">
      <path
         d="M 330.82812,331.47656 H 478 v 147 H 330.82812 Z m 0,0"
         clip-rule="nonzero"
         id="path1" />
    </clipPath>
  </defs>
  <path
     fill="#2b2b2b"
     d="m 57.691411,105.28516 c -3.52344,0 -6.40235,-2.87891 -6.40235,-6.402351 v -21.1289 c 0,-3.52344 2.87891,-6.40235 6.40235,-6.40235 3.51953,0 6.40234,2.87891 6.40234,6.40235 v 21.1289 c 0,3.523441 -2.84766,6.402351 -6.40234,6.402351 z m 0,0"
     fill-opacity="1"
     fill-rule="nonzero"
     id="path2" />
  <path
     fill="#2b2b2b"
     d="m 74.339841,105.28516 c -3.52343,0 -6.40234,-2.87891 -6.40234,-6.402351 v -30.2539 c 0,-3.52344 2.87891,-6.40235 6.40234,-6.40235 3.51953,0 6.40235,2.87891 6.40235,6.40235 v 30.2539 c 0,3.523441 -2.84766,6.402351 -6.40235,6.402351 z m 0,0"
     fill-opacity="1"
     fill-rule="nonzero"
     id="path3" />
  <path
     fill="#2b2b2b"
     d="m 91.308591,105.28516 c -3.52343,0 -6.40625,-2.87891 -6.40625,-6.402351 v -43.21875 c 0,-3.52344 2.88282,-6.40625 6.40625,-6.40625 3.51953,0 6.40235,2.88281 6.40235,6.40625 v 43.21875 c 0,3.523441 -2.85157,6.402351 -6.40235,6.402351 z m 0,0"
     fill-opacity="1"
     fill-rule="nonzero"
     id="path4" />
  <g
     clip-path="url(#7485859943)"
     id="g5"
     transform="translate(-315,-315)">
    <path
       fill="#2b2b2b"
       d="m 474.30859,457.51953 -20.20312,-20.16797 c -4.03516,-4.03515 -10.21094,-4.67578 -14.91797,-1.92187 l -3.26563,-5.63672 c 19.97657,-23.40235 18.88672,-58.71485 -3.23437,-80.83594 -11.26953,-11.26953 -26.25391,-17.48047 -42.16406,-17.48047 -15.94532,0 -30.89453,6.21094 -42.16407,17.48047 -11.26953,11.26953 -17.48046,26.25 -17.48046,42.16406 0,15.94141 6.21093,30.89453 17.48046,42.16407 11.6211,11.62109 26.89454,17.44921 42.16407,17.44921 11.62109,0 23.24218,-3.36328 33.26562,-10.11718 3.19922,-2.14453 7.39453,-2.08203 10.53125,0.1289 -2.17578,4.57813 -1.375,10.21094 2.40235,13.98828 l 20.19921,20.20313 c 2.40235,2.39844 5.53907,3.58594 8.71094,3.58594 3.13672,0 6.30469,-1.1875 8.70703,-3.58594 4.76953,-4.80469 4.76953,-12.61328 -0.0312,-17.41797 z M 357.38672,424.25781 c -8.83594,-8.83594 -13.70313,-20.62109 -13.70313,-33.10547 0,-12.51953 4.86719,-24.26953 13.70313,-33.10547 8.83594,-8.83593 20.61719,-13.69921 33.10547,-13.69921 12.51562,0 24.26562,4.86328 33.10156,13.69921 18.25,18.25 18.25,47.99219 0,66.24219 -18.24609,18.21485 -47.95703,18.21485 -66.20703,-0.0312 z m 0,0"
       fill-opacity="1"
       fill-rule="nonzero"
       id="path5" />
  </g>
</svg>
