<?xml version="1.0" encoding="UTF-8" standalone="no"?>
<svg
   width="240"
   zoomAndPan="magnify"
   viewBox="0 0 180 120"
   height="160"
   preserveAspectRatio="xMidYMid"
   version="1.0"
   id="svg11"
   xmlns="http://www.w3.org/2000/svg"
   xmlns:svg="http://www.w3.org/2000/svg">
  <defs
     id="defs3">
    <clipPath
       id="5981fad360">
      <path
         d="m 381.08594,440.79297 h 17.80078 v 19.39453 h -17.80078 z m 0,0"
         clip-rule="nonzero"
         id="path1" />
    </clipPath>
    <clipPath
       id="a36507d0b9">
      <path
         d="m 317,348.23828 h 42 V 406 h -42 z m 0,0"
         clip-rule="nonzero"
         id="path2" />
    </clipPath>
    <clipPath
       id="097a814066">
      <path
         d="m 452.05859,350.78906 h 40.85938 v 57.39844 h -40.85938 z m 0,0"
         clip-rule="nonzero"
         id="path3" />
    </clipPath>
  </defs>
  <path
     fill="#2b2b2b"
     d="m 61.707031,85.480469 -8.78906,11.80078 c -1.85938,2.50391 -1.33985,6.074221 1.16406,7.937501 l 0.61719,0.45703 c 1.01172,0.75391 2.19922,1.11719 3.375,1.11719 1.73437,0 3.44922,-0.78906 4.55859,-2.28125 l 8.78906,-11.800781 c 1.85938,-2.5 1.33594,-6.07032 -1.16406,-7.9336 l -0.61719,-0.46093 c -1.01171,-0.75391 -2.19921,-1.11719 -3.375,-1.11719 -1.73437,0 -3.45312,0.78906 -4.55859,2.28125"
     fill-opacity="1"
     fill-rule="nonzero"
     id="path4" />
  <g
     clip-path="url(#5981fad360)"
     id="g5"
     transform="translate(-315,-345)">
    <path
       fill="#2b2b2b"
       d="m 388.125,442.875 -5.98828,8.04687 c -1.66406,2.23438 -1.19922,5.42188 1.03515,7.08594 l 1.59375,1.1836 c 0.90235,0.67187 1.96094,0.99609 3.01172,0.99609 1.55078,0 3.08203,-0.70313 4.07422,-2.03516 l 5.98828,-8.04687 c 1.66407,-2.23438 1.19532,-5.42188 -1.03515,-7.08594 l -1.59375,-1.18359 c -0.90235,-0.67188 -1.96094,-0.9961 -3.01563,-0.9961 -1.54687,0 -3.07812,0.70313 -4.07031,2.03516"
       fill-opacity="1"
       fill-rule="nonzero"
       id="path5" />
  </g>
  <path
     fill="#2b2b2b"
     d="m 41.085941,71.597659 -2.41407,-1.80079 c -0.8125,-0.60156 -1.76171,-0.89453 -2.70703,-0.89453 -1.39453,0 -2.76953,0.63282 -3.66015,1.82813 l -4.03125,5.41797 c -1.4961,2.00781 -1.07422,4.87109 0.93359,6.36328 l 2.41406,1.80078 c 0.8125,0.60547 1.76172,0.89453 2.70703,0.89453 1.39454,0 2.76954,-0.63281 3.66016,-1.82812 l 4.03125,-5.41407 c 1.49609,-2.00781 1.07422,-4.875 -0.93359,-6.36718"
     fill-opacity="1"
     fill-rule="nonzero"
     id="path6" />
  <path
     fill="#2b2b2b"
     d="m 58.960941,72.433589 c -1.08203,-0.80468 -2.35157,-1.1914 -3.60938,-1.1914 -1.85547,0 -3.6914,0.84375 -4.8789,2.4375 l -10.72266,14.40234 c -1.99219,2.67578 -1.42969,6.49609 1.24609,8.48828 1.08203,0.80469 2.35157,1.19141 3.60938,1.19141 1.67187,0 3.33203,-0.6836 4.51172,-1.98828 0.17578,-0.30469 0.37109,-0.59766 0.58593,-0.88672 l 5.08985,-6.83985 3.69531,-4.96093 c 0.25391,-0.33985 0.53125,-0.66407 0.82813,-0.96875 l 0.89062,-1.19532 c 1.99219,-2.67578 1.42969,-6.49609 -1.24609,-8.48828"
     fill-opacity="1"
     fill-rule="nonzero"
     id="path7" />
  <g
     clip-path="url(#a36507d0b9)"
     id="g8"
     transform="translate(-315,-345)">
    <path
       fill="#2b2b2b"
       d="m 343.75391,350.23047 -25.84766,46.2539 c -0.82031,1.46875 -0.29688,3.32032 1.16797,4.13672 l 8.92969,4.99219 c 1.46484,0.81641 3.3164,0.29297 4.13671,-1.17187 l 25.84766,-46.25391 c 0.82031,-1.46875 0.29688,-3.32031 -1.16797,-4.14063 l -8.92969,-4.98828 c -1.46484,-0.82031 -3.3164,-0.29297 -4.13671,1.17188"
       fill-opacity="1"
       fill-rule="nonzero"
       id="path8" />
  </g>
  <g
     clip-path="url(#097a814066)"
     id="g9"
     transform="translate(-315,-345)">
    <path
       fill="#2b2b2b"
       d="m 452.44922,360.32422 25.84765,46.25781 c 0.82032,1.46484 2.67188,1.98828 4.13672,1.16797 l 8.92969,-4.98828 c 1.46484,-0.82031 1.98828,-2.67188 1.17188,-4.13672 l -25.85157,-46.25781 c -0.82031,-1.46485 -2.67187,-1.98828 -4.13672,-1.16797 l -8.92968,4.98828 c -1.46485,0.82031 -1.98828,2.67187 -1.16797,4.13672"
       fill-opacity="1"
       fill-rule="nonzero"
       id="path9" />
  </g>
  <path
     fill="#2b2b2b"
     d="m 147.99609,77.992189 c 0.0742,-2.13672 -0.92578,-4.16797 -2.6289,-5.45703 l -13.41407,-10.16407 c -4.84765,-3.41797 -10.89843,-7.33203 -17.97656,-11.63672 -9.98047,-6.0664 -19.386719,-11.3164 -23.749999,-13.71484 -0.67969,-0.375 -1.47656,-0.47266 -2.23047,-0.27734 l -4.89843,1.28515 c -0.72266,0.1875 -1.35157,0.63282 -1.76954,1.25 l -0.004,0.008 c -1.35938,1.99218 -2.875,3.82031 -4.4961,5.43359 -1.90625,1.89453 -3.92968,3.46875 -6.00781,4.67578 -2.5,1.44922 -5.07031,2.36328 -7.64453,2.71484 -0.57031,0.0781 -1.14453,0.11719 -1.70312,0.11719 -2.01954,0 -3.90235,-0.51562 -5.44141,-1.49609 -1.97266,-1.25781 -3.23828,-3.09766 -3.66016,-5.32031 -0.48437,-2.57422 0.17969,-5.51172 2.03907,-8.98438 1.30468,-2.44531 2.9375,-4.67969 4.1289,-6.3125 0.29297,-0.40234 0.54297,-0.75 0.7461,-1.03516 0.82031,-1.16406 1.77734,-2.5 2.84765,-3.89453 0.27344,-0.35547 -0.0156,-0.86718 -0.46094,-0.8164 -2.25,0.25781 -7.34375,0.004 -15.35546,-4.96094 -0.71094,-0.4375 -1.64454,-0.19922 -2.05469,0.53516 l -22.20703,39.73437 c -0.46485,0.83203 -0.35157,1.87109 0.28515,2.58594 l 5.88672,6.62109 c 0.0781,0.0937 0.17188,0.17578 0.26953,0.2461 l 0.58985,-0.79297 c 0.8125,-1.08594 1.88281,-1.97657 3.09765,-2.57032 1.17188,-0.57031 2.47657,-0.875 3.78125,-0.875 0.89844,0 1.78907,0.14063 2.64063,0.41797 0.88281,0.28516 1.71094,0.71485 2.46094,1.27344 l 2.41796,1.79688 c 0.92188,0.6875 1.6875,1.54296 2.26954,2.53515 0.13671,0.23438 0.26171,0.47266 0.375,0.71875 0.14843,0.32422 0.58984,0.36719 0.80468,0.082 l 0.32032,-0.43359 c 0.95312,-1.27734 2.21093,-2.32422 3.64062,-3.02344 1.37891,-0.67187 2.94531,-1.02734 4.44922,-1.02734 1.05078,0 2.10937,0.16406 3.11328,0.48828 1.03906,0.33984 2.01953,0.84375 2.89844,1.5 1.08984,0.80859 1.98828,1.8125 2.67187,2.98047 0.65625,1.125 1.08594,2.34765 1.27735,3.64062 0.1289,0.89844 0.14062,1.79688 0.0312,2.6836 -0.043,0.36328 0.24218,0.68359 0.60937,0.67187 0.10938,-0.004 0.21875,-0.004 0.32813,-0.004 1,0 2.01953,0.15625 2.98047,0.46875 1.0039,0.32421 1.93359,0.80859 2.78125,1.4375 l 0.61718,0.46093 c 3.02344,2.25391 4.35547,5.94532 3.75782,9.42969 -0.0781,0.44141 0.26953,0.84375 0.71875,0.83984 0.0234,0 0.0469,0 0.0742,0 0.95313,0 1.89063,0.14844 2.79688,0.44141 0.9375,0.30469 1.8125,0.75781 2.60547,1.34766 l 1.59375,1.1875 c 4.01953,2.99218 4.85156,8.675781 1.85937,12.695311 l -0.78515,1.05469 c -0.36719,0.49609 -0.28125,1.20703 0.21484,1.57422 0.0898,0.0625 0.18359,0.11718 0.28906,0.15234 1.78516,0.63281 18.996099,6.48047 23.863279,-1.72266 0.32032,-0.54297 0.10157,-1.24218 -0.46093,-1.51562 L 93.120931,99.191459 c -0.96484,-0.47657 -1.47265,-1.57813 -1.16015,-2.60938 0.23047,-0.75391 0.88281,-1.43359 2.47265,-1.5 0.16797,-0.008 0.33594,0.0312 0.48438,0.10938 l 16.519529,8.617181 c 1.85156,0.96875 3.95703,1.3711 6.03516,1.11328 2.54296,-0.3125 5.30859,-1.625 5.55468,-5.777341 0.0625,-1.09375 -0.5,-2.125 -1.44531,-2.67578 L 100.9725,84.464889 c -0.80469,-0.47265 -1.238289,-1.39062 -1.082039,-2.30859 0.144539,-0.85938 0.605469,-1.73438 1.867189,-1.78125 0.41406,-0.0156 0.82422,0.0977 1.1836,0.30469 l 21.65625,12.58593 c 1.08593,0.63282 2.33203,0.94141 3.58984,0.88282 2.16406,-0.10157 5.32422,-0.75782 6.57422,-3.58203 1.09765,-2.47657 0.1289,-5.38672 -2.19531,-6.78516 l -23.71094,-14.22656 c -0.69922,-0.41797 -1.11328,-1.19532 -1.0586,-2.00782 0.0703,-1.07421 0.61719,-2.29296 2.82032,-1.9414 0.26562,0.043 0.52343,0.14062 0.7539,0.28125 l 26.9336,16.05469 c 2.0039,1.1914 4.46093,1.39062 6.60156,0.47265 1.59375,-0.68359 3.00781,-1.98047 3.08984,-4.42187"
     fill-opacity="1"
     fill-rule="nonzero"
     id="path10" />
  <path
     fill="#2b2b2b"
     d="m 157.84375,60.667969 -22.48047,-40.22656 c -0.17969,-0.32032 -0.55469,-0.47266 -0.90625,-0.36719 -1.61719,0.47656 -3.63281,0.96875 -3.92578,1.0039 -0.87109,0.10938 -1.74219,0.16016 -2.61328,0.16016 -2.96094,0 -5.91797,-0.58984 -8.71485,-1.54687 -6.51171,-2.23829 -14.60937,-2.88282 -21.832029,-2.88282 -5.34375,0 -10.20703,0.35157 -13.60156,0.67188 -2.79297,0.26172 -5.50781,0.46484 -8.21484,1.26562 -2.54688,0.75 -4.72266,2.48438 -6.5,4.40625 -0.46875,0.50782 -0.92969,1.02735 -1.38282,1.55469 -1.82031,2.12891 -3.5039,4.39844 -5.10546,6.67969 -2.34766,3.33984 -9.85157,12.47656 -4.38282,15.95703 0.97266,0.62109 2.12891,0.87109 3.28907,0.87109 0.39062,0 0.77734,-0.0273 1.16015,-0.0781 4.375,-0.60156 8.29688,-3.21094 11.36719,-6.26172 1.48828,-1.48047 2.82812,-3.11719 4.00781,-4.85156 0.20313,-0.29688 1.01172,-2.07422 1.35156,-2.16407 l 7.50782,-1.96875 2.51172,-0.65625 c 0.0664,-0.0195 0.13671,-0.0273 0.20312,-0.0273 0.13281,0 0.26563,0.0352 0.38672,0.0977 3.87109,2.09765 37.624999,20.60937 56.992189,37.32812 0.004,0.004 0.004,0.004 0.008,0.004 0.26562,0.23047 0.66016,0.23047 0.92969,0.008 l 9.89843,-8.14062 c 0.17579,-0.25 0.19141,-0.57422 0.0469,-0.83594"
     fill-opacity="1"
     fill-rule="nonzero"
     id="path11" />
</svg>
