<?xml version="1.0" encoding="UTF-8" standalone="no"?>
<svg
   width="230"
   zoomAndPan="magnify"
   viewBox="0 0 172.5 142.5"
   height="190"
   preserveAspectRatio="xMidYMid"
   version="1.0"
   id="svg9"
   xmlns="http://www.w3.org/2000/svg"
   xmlns:svg="http://www.w3.org/2000/svg">
  <defs
     id="defs3">
    <clipPath
       id="5c6975c258">
      <path
         d="m 367,314.32031 h 57 V 384 h -57 z m 0,0"
         clip-rule="nonzero"
         id="path1" />
    </clipPath>
    <clipPath
       id="516524f074">
      <path
         d="M 325.6875,417 H 395 v 23.32031 h -69.3125 z m 0,0"
         clip-rule="nonzero"
         id="path2" />
    </clipPath>
    <clipPath
       id="ae64dbb66d">
      <path
         d="m 415,417 h 68.9375 v 23.32031 H 415 Z m 0,0"
         clip-rule="nonzero"
         id="path3" />
    </clipPath>
  </defs>
  <g
     clip-path="url(#5c6975c258)"
     id="g4"
     transform="translate(-315,-307.5)">
    <path
       fill="#2b2b2b"
       d="m 367.53125,326.48437 v 32.09375 c 0,3.36329 1.35937,6.40625 3.57812,8.58985 2.21875,2.21875 5.26172,3.57812 8.58985,3.57812 h 1.17969 v 13.23828 l 18.32031,-13.23828 h 12.59375 c 3.36328,0 6.40234,-1.35937 8.58594,-3.57812 2.21875,-2.21875 3.57812,-5.26172 3.57812,-8.58985 v -32.09375 c 0,-3.36328 -1.35937,-6.40625 -3.57812,-8.58593 -2.21875,-2.21875 -5.25782,-3.57813 -8.58594,-3.57813 h -32.09375 c -3.36328,0 -6.40625,1.35938 -8.58985,3.57813 -2.21875,2.21875 -3.57812,5.25781 -3.57812,8.58593 z m 44.87109,16.03125 c 0,2.32422 -1.89843,4.1836 -4.1875,4.1836 -2.32422,0 -4.1875,-1.89453 -4.1875,-4.1836 0,-2.32812 1.89844,-4.1875 4.1875,-4.1875 2.32422,0 4.1875,1.89454 4.1875,4.1875 z m -12.45312,0 c 0,2.32422 -1.89453,4.1836 -4.1875,4.1836 -2.32422,0 -4.1836,-1.89453 -4.1836,-4.1836 0,-2.32812 1.89454,-4.1875 4.1836,-4.1875 2.32812,0 4.1875,1.89454 4.1875,4.1875 z m -16.67188,-4.1875 c 2.32422,0 4.1836,1.89454 4.1836,4.1875 0,2.32422 -1.89453,4.1836 -4.1836,4.1836 -2.32812,0 -4.1875,-1.89453 -4.1875,-4.1836 0,-2.32812 1.89453,-4.1875 4.1875,-4.1875 z m 0,0"
       fill-opacity="1"
       fill-rule="evenodd"
       id="path4" />
  </g>
  <path
     fill="#2b2b2b"
     d="m 45.089841,67.429689 c 10.16016,0 18.39063,8.23047 18.39063,18.39453 0,10.16015 -8.23047,18.390621 -18.39063,18.390621 -10.16015,0 -18.39062,-8.230471 -18.39062,-18.390621 0,-10.16406 8.23047,-18.39453 18.39062,-18.39453 z m 0,0"
     fill-opacity="1"
     fill-rule="evenodd"
     id="path5" />
  <g
     clip-path="url(#516524f074)"
     id="g6"
     transform="translate(-315,-307.5)">
    <path
       fill="#2b2b2b"
       d="m 347.31641,417.33203 h 25.54687 c 11.87891,0 21.61328,9.73047 21.61328,21.60938 v 1.68359 h -68.77344 v -1.68359 c 0,-11.87891 9.73438,-21.60938 21.61329,-21.60938 z m 0,0"
       fill-opacity="1"
       fill-rule="evenodd"
       id="path6" />
  </g>
  <path
     fill="#2b2b2b"
     d="m 134.89844,67.429689 c 10.16015,0 18.39062,8.23047 18.39062,18.39453 0,10.16015 -8.23047,18.390621 -18.39062,18.390621 -10.16016,0 -18.39063,-8.230471 -18.39063,-18.390621 0,-10.16406 8.23047,-18.39453 18.39063,-18.39453 z m 0,0"
     fill-opacity="1"
     fill-rule="evenodd"
     id="path7" />
  <g
     clip-path="url(#ae64dbb66d)"
     id="g8"
     transform="translate(-315,-307.5)">
    <path
       fill="#2b2b2b"
       d="m 437.125,417.33203 h 25.54687 c 11.87891,0 21.61329,9.73047 21.61329,21.60938 v 1.68359 h -68.77344 v -1.68359 c 0,-11.87891 9.73437,-21.60938 21.61328,-21.60938 z m 0,0"
       fill-opacity="1"
       fill-rule="evenodd"
       id="path8" />
  </g>
  <path
     fill="#2b2b2b"
     d="m 113.28906,19.484369 c 1.39453,0.60938 2.6836,1.50391 3.75391,2.57813 2.21875,2.21875 3.57812,5.25781 3.57812,8.58594 v 32.09375 c 0,3.36328 -1.35937,6.40625 -3.57812,8.58984 -2.21875,2.21875 -5.25781,3.57813 -8.58594,3.57813 h -1.17969 v 13.23828 L 88.957031,74.910159 h -12.59375 c -0.28906,0 -0.57422,0 -0.85937,-0.0352 l 10.08984,-7.30078 h 11.19922 c 4.402339,0 8.550779,-1.75391 11.664059,-4.83203 3.11328,-3.10938 4.83203,-7.26172 4.83203,-11.66407 z m 0,0"
     fill-opacity="1"
     fill-rule="nonzero"
     id="path9" />
</svg>
